<svg width="1200" height="700" viewBox="0 0 1200 700" fill="none" xmlns="http://www.w3.org/2000/svg">
  <!-- Background -->
  <rect width="1200" height="700" fill="#F4F4F6"/>
  
  <!-- Dashboard Frame -->
  <rect x="50" y="50" width="1100" height="600" rx="12" fill="white" stroke="#E5E7EB" stroke-width="1"/>
  
  <!-- Header -->
  <rect x="50" y="50" width="1100" height="80" rx="12" fill="#FAFAFA"/>
  <rect x="100" y="90" width="200" height="20" rx="4" fill="#E5E7EB"/>
  <rect x="950" y="85" width="40" height="30" rx="6" fill="#217CEB"/>
  <rect x="1000" y="85" width="40" height="30" rx="6" fill="#4A42CC"/>
  
  <!-- Sidebar -->
  <rect x="50" y="130" width="200" height="520" fill="#F9FAFB"/>
  <rect x="80" y="160" width="140" height="16" rx="4" fill="#217CEB"/>
  <rect x="80" y="200" width="140" height="16" rx="4" fill="#E5E7EB"/>
  <rect x="80" y="240" width="140" height="16" rx="4" fill="#E5E7EB"/>
  <rect x="80" y="280" width="140" height="16" rx="4" fill="#E5E7EB"/>
  
  <!-- Main Content Area -->
  <rect x="270" y="160" width="830" height="100" rx="8" fill="#FAFAFA"/>
  <rect x="300" y="190" width="300" height="20" rx="4" fill="#2C2C2E"/>
  <rect x="300" y="220" width="500" height="16" rx="4" fill="#9CA3AF"/>
  
  <!-- Content Cards -->
  <rect x="270" y="280" width="250" height="180" rx="8" fill="white" stroke="#E5E7EB"/>
  <rect x="300" y="310" width="190" height="12" rx="4" fill="#217CEB"/>
  <rect x="300" y="340" width="150" height="12" rx="4" fill="#E5E7EB"/>
  <rect x="300" y="370" width="170" height="12" rx="4" fill="#E5E7EB"/>
  <rect x="300" y="400" width="160" height="12" rx="4" fill="#E5E7EB"/>
  
  <rect x="540" y="280" width="250" height="180" rx="8" fill="white" stroke="#E5E7EB"/>
  <rect x="570" y="310" width="190" height="12" rx="4" fill="#4A42CC"/>
  <rect x="570" y="340" width="150" height="12" rx="4" fill="#E5E7EB"/>
  <rect x="570" y="370" width="170" height="12" rx="4" fill="#E5E7EB"/>
  <rect x="570" y="400" width="160" height="12" rx="4" fill="#E5E7EB"/>
  
  <rect x="810" y="280" width="290" height="180" rx="8" fill="white" stroke="#E5E7EB"/>
  <rect x="840" y="310" width="230" height="12" rx="4" fill="#10B981"/>
  <rect x="840" y="340" width="190" height="12" rx="4" fill="#E5E7EB"/>
  <rect x="840" y="370" width="210" height="12" rx="4" fill="#E5E7EB"/>
  <rect x="840" y="400" width="200" height="12" rx="4" fill="#E5E7EB"/>
  
  <!-- Stats Row -->
  <rect x="270" y="480" width="830" height="120" rx="8" fill="#FAFAFA"/>
  <rect x="320" y="520" width="120" height="40" rx="6" fill="linear-gradient(90deg, #217CEB, #4A42CC)"/>
  <rect x="470" y="520" width="120" height="40" rx="6" fill="#F3F4F6"/>
  <rect x="620" y="520" width="120" height="40" rx="6" fill="#F3F4F6"/>
  <rect x="770" y="520" width="120" height="40" rx="6" fill="#F3F4F6"/>
  <rect x="920" y="520" width="120" height="40" rx="6" fill="#F3F4F6"/>
  
  <!-- Center Title -->
  <text x="600" y="380" font-family="Arial, sans-serif" font-size="32" font-weight="600" fill="#2C2C2E" text-anchor="middle">Infin8Content Dashboard</text>
</svg>
